<svg width="42" height="51" fill="none" xmlns="http://www.w3.org/2000/svg"><g clip-path="url(#clip0_1_248)"><path d="M14.932 10.75a1.18 1.18 0 000-2.36h-.02a1.085 1.085 0 00-.796.346 1.207 1.207 0 000 1.667c.199.215.482.349.797.349h.023-.002l-.002-.002zm12.78 0h.021c.315 0 .599-.134.796-.347a1.207 1.207 0 000-1.667 1.088 1.088 0 00-.798-.348h-.023.002a1.18 1.18 0 000 2.36l.002.002zM3.124 16.322a3.102 3.102 0 013.089 3.089v13.08a3.03 3.03 0 01-.895 2.152 2.953 2.953 0 01-2.135.91h-.065.004-.017a3.103 3.103 0 01-3.103-3.104V19.367c0-.84.349-1.598.91-2.14a3 3 0 012.151-.905h.061-.002.002zm32.098.576v20.229c0 .9-.371 1.717-.97 2.301a3.172 3.172 0 01-2.286.97h-.048.002-2.272v6.874a3.12 3.12 0 01-6.24 0v-6.874H19.23v6.89a3.104 3.104 0 01-3.103 3.104h-.061c-.84 0-1.598-.348-2.14-.909a3.003 3.003 0 01-.909-2.154v-.059.002l-.029-6.874h-2.26A3.31 3.31 0 017.42 37.09v-.023.002V16.9l27.802-.002zM28.197 4.636a13.418 13.418 0 015.149 4.598l.031.05a11.622 11.622 0 011.938 6.46v.068-.004H7.302v-.065c0-2.406.725-4.642 1.966-6.505l-.028.042a13.36 13.36 0 015.132-4.613l.075-.035-2.15-3.968a.4.4 0 01.147-.605h.002a.42.42 0 01.607.178l.002.002 2.184 3.998c1.793-.804 3.884-1.272 6.086-1.272 2.203 0 4.294.468 6.184 1.31l-.097-.038L29.596.239a.42.42 0 01.608-.18h-.002a.399.399 0 01.152.607l-2.157 3.97zm14.445 14.781v13.038a3.104 3.104 0 01-3.103 3.104h-.06c-.84 0-1.598-.349-2.14-.91a3.004 3.004 0 01-.91-2.154v-.058.002-13.082c0-.839.35-1.597.91-2.134a2.987 2.987 0 012.135-.895h.05-.002.06c.84 0 1.601.343 2.151.895.56.54.91 1.295.91 2.135v.057-.002.004z" fill="#A4C2FF"/></g><defs><clipPath id="clip0_1_248"><path fill="#fff" d="M0 0h42v50.39H0z"/></clipPath></defs></svg>