<svg width="50" height="51" fill="none" xmlns="http://www.w3.org/2000/svg"><g clip-path="url(#clip0_1_242)"><path d="M25 .195c-7.896 0-14.935 3.66-19.517 9.377l8.236 14.267A11.362 11.362 0 0125 13.83h22.273A25 25 0 0025 .195zM4.023 11.59A24.881 24.881 0 000 25.195C0 37.72 9.208 48.093 21.227 49.912l8.235-14.265a11.354 11.354 0 01-14.302-4.77L4.023 11.59zm27.796 4.512a11.345 11.345 0 013.02 14.771l.005.002h-.004L23.706 50.162c.43.02.86.033 1.294.033 13.806 0 25-11.194 25-25 0-3.208-.604-6.273-1.704-9.092H31.819zM25 34.287a9.092 9.092 0 110-18.185 9.092 9.092 0 010 18.185z" fill="#4A86FF"/></g><defs><clipPath id="clip0_1_242"><path fill="#fff" transform="translate(0 .195)" d="M0 0h50v50H0z"/></clipPath></defs></svg>