<svg width="50" height="51" fill="none" xmlns="http://www.w3.org/2000/svg"><path d="M2.292 12.8C1.012 12.8 0 13.8 0 15.05a2.25 2.25 0 002.292 2.25c1.291 0 2.312-1 2.312-2.25s-1.02-2.25-2.312-2.25zm15.854.04c-7 0-11.375 4.772-11.375 12.355 0 7.646 4.375 12.396 11.375 12.396 6.958 0 11.354-4.75 11.354-12.396 0-7.583-4.396-12.354-11.354-12.354zm22.583 0c-5.208 0-8.916 2.876-8.916 7.147 0 3.395 2.104 5.52 6.52 6.541l3.105.75c3.02.688 4.25 1.688 4.25 3.417 0 2-2.021 3.417-4.896 3.417-2.938 0-5.146-1.438-5.375-3.646H31.25c.167 4.416 3.792 7.125 9.292 7.125 5.812 0 9.458-2.854 9.458-7.396 0-3.563-2.083-5.583-6.917-6.688l-2.77-.625c-2.938-.708-4.146-1.645-4.146-3.229 0-2 1.833-3.333 4.541-3.333 2.73 0 4.605 1.354 4.813 3.583h4.083c-.104-4.208-3.583-7.062-8.875-7.062zm-22.583 3.647c4.25 0 6.979 3.395 6.979 8.708 0 5.354-2.73 8.75-6.98 8.75-4.29 0-7-3.396-7-8.75 0-5.313 2.71-8.708 7-8.708zM.23 19.59v17.604h4.144V19.59H.229h.002z" fill="#0D224E"/></svg>