<svg width="50" height="51" fill="none" xmlns="http://www.w3.org/2000/svg"><path d="M41.042 36.862c-.209-.417-.417-.834-.417-1.25 0-.834-.417-1.459-1.042-2.084-.208-.208-.625-.416-.833-.416 1.25-3.75-.625-7.5-2.708-10.209-1.667-2.5-4.167-4.375-3.959-7.708 0-3.958.417-11.25-6.875-10.625-7.5.417-5.416 8.125-5.625 10.833 0 2.292-1.041 4.584-2.708 6.459a6.332 6.332 0 00-1.042 1.458c-2.083 2.5-3.125 5.833-3.125 8.958-.416.417-.833.834-1.041 1.25-.209.209-.417.417-.417.625-.208.209-.625.417-1.042.625-.833.209-1.458.625-1.875 1.459-.208.625-.416 1.458-.208 2.291.208.417.208.834 0 1.459-.417.833-.417 1.875 0 2.916.625.834 1.667 1.042 3.125 1.25 1.042 0 2.292.417 3.333.834 1.042.625 2.292 1.041 3.542 1.041.625 0 1.458-.208 2.083-.416.625-.417 1.042-.834 1.25-1.459.834 0 2.084-.416 3.542-.416 1.25 0 2.5.416 4.167.208 0 .208 0 .417.208.625.417 1.042 1.458 1.875 2.708 2.083h.417c1.667-.208 3.333-1.041 4.375-2.291.833-.834 1.875-1.459 2.917-1.875 1.25-.625 2.083-1.042 2.291-2.084.209-1.458-.208-2.291-1.041-3.541zM26.667 10.195c1.25.208 2.291 1.25 2.083 2.5 0 .625-.208 1.25-.625 1.875h-.208c-.417-.208-.625-.208-.834-.417.209-.208.209-.625.417-1.041 0-.834-.417-1.459-.833-1.459-.625 0-1.042.625-1.042 1.459v.208c-.208-.208-.625-.208-.833-.417v-.208c-.209-1.042.625-2.292 1.875-2.5zm-.625 4.167c.208.208.625.416.833.416.208 0 .625.209.833.417.417.208.834.417.834 1.042s-.625 1.25-1.875 1.666c-.417.209-.625.209-.834.417-.625.417-1.25.625-2.083.625-.625 0-1.25-.417-1.667-.833-.208-.209-.416-.417-.833-.625-.208-.209-.625-.625-.833-1.25 0-.209.208-.417.416-.625.625-.417.834-.625 1.042-.834l.208-.208c.417-.625 1.25-1.042 2.084-1.042.625.209 1.25.417 1.875.834zm-4.375-3.75c.833 0 1.458.833 1.666 2.291v.417c-.208 0-.625.208-.833.417v-.417c0-.625-.417-1.25-.833-1.042-.417 0-.625.625-.625 1.25 0 .417.208.625.416.834 0 0-.208.208-.416.208-.417-.417-.834-1.042-.834-1.667 0-1.25.625-2.291 1.459-2.291zm-2.084 33.541c-1.458.625-3.333.417-4.583-.416-1.25-.625-2.292-.834-3.75-.834-1.042-.208-2.083-.208-2.292-.625-.208-.416-.208-1.041.209-2.083a2.89 2.89 0 000-1.875c-.209-.625-.209-1.042 0-1.667.208-.625.625-.833 1.25-1.041.625-.209 1.041-.417 1.458-.834.208-.208.417-.416.625-.833.625-.833 1.042-1.25 1.667-1.25 1.25.208 2.291 2.083 3.125 3.958.416.625.833 1.459 1.458 2.084.833 1.041 1.875 2.5 1.875 3.333 0 1.042-.417 1.667-1.042 2.083zm10.209-4.583c0 .208 0 .208-.209.417a7.947 7.947 0 01-8.541.625l-1.25-1.875c1.875-.209 1.458-2.709-2.5-5.209-4.167-2.708-1.25-7.708.208-10 .208-.208.208 0-.625 1.667-.625 1.25-1.875 4.375-.208 6.667 0-1.667.416-3.334 1.041-5 1.459-2.709 2.5-5.834 3.125-8.959.209.209.209.209.417.209.208.208.417.416.625.416.417.625 1.25.834 1.875.834h.208c.834 0 1.667-.209 2.292-.834.208-.208.417-.416.833-.416.625-.209 1.25-.625 1.875-1.25.834 2.708 1.667 5.208 2.917 7.5.833 1.666 1.458 3.333 1.875 5.208.625 0 1.458.208 2.083.625 1.667.833 2.292 1.458 2.084 2.5H37.5c0-.625-.417-1.25-1.875-1.875s-2.708-.625-3.125.833c-.208 0-.417.209-.625.209-1.667.833-1.667 3.125-1.875 5.416.208.834 0 1.459-.208 2.292zm9.583 1.25c-1.25.417-2.292 1.25-3.125 2.292-.833 1.25-2.292 2.083-3.958 1.875-.834 0-1.667-.625-1.875-1.459-.209-1.25-.209-2.5.416-3.75.209-.833.417-1.458.625-2.291.209-2.5.209-3.959 1.25-4.584 0 1.042.625 1.667 1.459 2.084 1.041 0 2.083-.209 2.916-1.042h.417c.625 0 1.042 0 1.458.417.417.416.625 1.041.625 1.458 0 .625.417 1.25.625 1.875 1.042 1.042 1.042 1.667 1.042 1.875-.208.417-1.042.833-1.875 1.25zm-18.75-25c-.208 0-.208 0-.208.208 0 0 0 .209.208.209s.208.208.208.208c.625.833 1.667 1.25 2.917 1.458 1.042-.208 2.083-.416 3.125-1.25l1.25-.625c.208 0 .208-.208.208-.208 0-.208 0-.208-.208-.208-.417.208-1.042.416-1.458.625-.834.625-1.875 1.041-2.917 1.041-1.042 0-1.875-.625-2.5-1.25-.208 0-.417-.208-.625-.208z" fill="#0D224E"/></svg>