<svg width="50" height="51" fill="none" xmlns="http://www.w3.org/2000/svg"><g clip-path="url(#clip0_1_244)"><path d="M46.027 36.632c-1.15 2.546-1.7 3.684-3.177 5.934-2.064 3.142-4.977 7.064-8.579 7.09-3.204.027-4.03-2.09-8.379-2.055-4.348.02-5.253 2.094-8.461 2.061-3.602-.032-6.36-3.565-8.425-6.702C3.23 34.162 2.62 23.85 6.19 18.364c2.525-3.89 6.521-6.175 10.273-6.175 3.822 0 6.223 2.1 9.383 2.1 3.066 0 4.933-2.106 9.352-2.106 3.342 0 6.877 1.822 9.402 4.964-8.261 4.527-6.92 16.327 1.427 19.485zM31.844 8.672c1.608-2.064 2.827-4.975 2.385-7.944-2.623.179-5.69 1.854-7.483 4.023-1.623 1.975-2.97 4.91-2.444 7.748 2.861.092 5.823-1.614 7.542-3.827z" fill="#EF3959"/></g><defs><clipPath id="clip0_1_244"><path fill="#fff" transform="translate(0 .195)" d="M0 0h50v50H0z"/></clipPath></defs></svg>