<svg width="194" height="194" fill="none" xmlns="http://www.w3.org/2000/svg"><path d="M177.169 101.75l-.248 1.249 7.521 3.785-.016.078-8.396.623-.248 1.248 9.444 4.715.244-1.229-7.719-3.703.02-.097 8.556-.51.271-1.366-7.711-3.742.019-.097 8.548-.471.245-1.229-10.53.746zm-1.553 10.597l2.434 1.855-1.256 3.92-3.059.095-.394 1.231 10.837-.453.388-1.212-8.555-6.667-.395 1.231zm3.357 2.558l3.877 2.954-.024.076-4.872.151 1.019-3.181zm2.901 9.276l-1.291 2.93-8.316-3.665-.498 1.128 8.317 3.665-1.291 2.93 1 .441 3.08-6.988-1.001-.441zm-9.425 15.209c1.993.729 3.901-.089 4.936-1.856 1.317-2.248.539-4.893-2.241-6.522-2.78-1.628-5.468-1.013-6.785 1.235-1.035 1.767-.815 3.832.795 5.213l.624-1.064c-1.068-.971-1.107-2.4-.423-3.566.934-1.596 2.904-2.125 5.186-.788s2.784 3.313 1.849 4.909c-.684 1.167-1.949 1.831-3.318 1.375l-.623 1.064zm-5.884-2.423l-.751.978 3.614 2.772-3.305 4.308-3.613-2.772-.751.978 8.078 6.198.751-.979-3.597-2.76 3.304-4.307 3.598 2.76.75-.978-8.078-6.198zm-8.222 11.75l-.912.83 3.065 3.368-4.016 3.653-3.065-3.368-.912.83 6.852 7.531.912-.83-3.051-3.353 4.016-3.654 3.051 3.354.912-.83-6.852-7.531zm-11.058 16.408c1.857 2.633 4.559 3.186 6.688 1.684 2.129-1.501 2.515-4.232.658-6.864-1.857-2.633-4.558-3.185-6.687-1.684-2.129 1.502-2.515 4.232-.659 6.864zm.976-.687c-1.525-2.162-1.164-4.168.348-5.234 1.511-1.066 3.522-.733 5.047 1.428 1.524 2.162 1.163 4.169-.348 5.234-1.511 1.066-3.523.733-5.047-1.428zm-5.969-1.163l-1.135.577 1.678 8.25-.071.036-5.683-6.211-1.134.577 2.137 10.337 1.117-.568-1.865-8.356.088-.045 5.694 6.407 1.24-.631-1.83-8.374.089-.045 5.658 6.425 1.116-.568-7.099-7.811zm-11.346 16.91l1.151-.442-3.648-9.505-1.151.442 3.648 9.505zm-2.585.315l-3.094.826-2.344-8.781-1.191.318 2.344 8.781-3.093.826.282 1.057 7.378-1.97-.282-1.057zm-16.057-4.564l-1.27.078-1.743 8.237-.079.005-2.743-7.96-1.271.079-2.15 10.334 1.25-.077 1.612-8.408.1-.006 2.675 8.143 1.389-.086 1.652-8.411.099-.006 2.636 8.146 1.25-.078-3.407-9.99zm-19.394 5.853c-.21 3.214 1.543 5.342 4.143 5.513 2.6.171 4.616-1.71 4.827-4.924.211-3.215-1.542-5.343-4.142-5.514-2.6-.17-4.616 1.71-4.827 4.925zm1.191.078c.174-2.639 1.716-3.973 3.562-3.852 1.845.121 3.2 1.645 3.026 4.285-.173 2.639-1.715 3.972-3.56 3.851-1.846-.121-3.201-1.645-3.028-4.284zm-2.661-4.817l-1.215-.208-.67 3.92-2.196-.375a5.139 5.139 0 00-.255-.039l-1.446-4.287-1.412-.241 1.56 4.533c-1.353.218-2.13 1.159-2.357 2.492-.304 1.774.532 3.259 2.884 3.661l3.391.58 1.716-10.036zm-2.073 4.81l-.674 3.94-2.136-.365c-1.627-.279-2.119-1.18-1.913-2.385.206-1.206.96-1.834 2.567-1.559l2.156.369zm-6.217-5.739l-1.187-.336-.9 3.176-1.615 1.031-2.115-5.519-1.436-.406 2.591 6.541-5.365 3.255 1.55.439 5.777-3.613.115.032-1.377 4.86 1.186.336 2.775-9.796zm-16.178 3.193l-1.11-.44c-.515 1.448.378 3.038 2.208 3.764 1.812.719 3.653.23 4.284-1.36.506-1.275-.118-2.4-1.428-3.412l-1.032-.795c-.888-.673-1.636-1.376-1.262-2.319.41-1.035 1.68-1.323 2.992-.802 1.128.447 1.928 1.342 1.595 2.451l1.183.469c.505-1.596-.334-3.149-2.367-3.955-2.181-.866-3.896-.156-4.505 1.379-.704 1.774.75 3.015 1.628 3.662l.858.64c.63.464 1.61 1.281 1.207 2.297-.36.906-1.455 1.242-2.712.743-1.146-.455-1.799-1.345-1.54-2.322zm-10.077-7.435l3.876 2.195.539-.952-3.877-2.195-.538.952zm-4.433-7.517l-.963-.832-7.006 4.669-.06-.052 3.605-7.608-.963-.832-8.764 5.883.948.819 7.032-4.883.075.065-3.782 7.692 1.053.91 7.063-4.857.075.065-3.813 7.666.948.819 4.552-9.524zm-8.474-6.64l-2.814 1.204-2.792-3.025 1.424-2.708-.877-.95-4.945 9.653.863.935 10.018-4.159-.877-.95zm-3.88 1.661l-4.482 1.917-.054-.058 2.27-4.314 2.266 2.455zm-9.513-2.066l-1.912-2.568 7.29-5.426-.735-.99-7.29 5.427-1.912-2.569-.878.653 4.56 6.126.877-.653zm-8.558-15.654c-1.616 1.375-1.843 3.439-.814 5.21 1.308 2.253 3.994 2.877 6.78 1.259 2.785-1.618 3.573-4.26 2.265-6.513-1.03-1.771-2.934-2.596-4.93-1.874l.62 1.066c1.37-.451 2.633.218 3.312 1.387.93 1.6.42 3.574-1.867 4.903-2.287 1.328-4.254.792-5.183-.807-.68-1.17-.635-2.598.436-3.565l-.62-1.066zm5-3.903l-.48-1.136-4.195 1.774-2.115-5 4.194-1.774-.48-1.135-9.377 3.966.48 1.135 4.176-1.766 2.115 5-4.176 1.767.48 1.135 9.378-3.966zm-6.112-12.787l-.272-1.202-4.442 1.006-1.2-5.295 4.442-1.006-.272-1.202-9.93 2.25.272 1.202 4.422-1.002 1.2 5.295-4.422 1.002.272 1.202 9.93-2.25zm-8.828-17.761c-3.207.31-5.024 2.383-4.773 4.976.25 2.593 2.431 4.281 5.638 3.97 3.207-.31 5.024-2.383 4.773-4.976-.25-2.593-2.431-4.281-5.638-3.97zm.115 1.187c2.632-.254 4.197 1.053 4.375 2.894.178 1.84-1.107 3.423-3.74 3.678-2.632.254-4.197-1.053-4.375-2.894-.178-1.84 1.107-3.423 3.74-3.678zm3.922-4.823l.064-1.271-7.99-2.651.003-.08 8.217-1.837.063-1.271-10.029-3.291-.063 1.251 8.176 2.541-.005.1-8.391 1.748-.07 1.391 8.174 2.58-.005.1-8.39 1.709-.062 1.251 10.308-2.27zM7.076 85.335l-.189 1.218 10.061 1.562.19-1.218-10.062-1.562zm1.017-2.61l.825-3.094 8.781 2.344.318-1.191-8.78-2.344.825-3.093-1.057-.283-1.969 7.378 1.057.283zm11.886-11.604l.564-1.14-6.274-5.614.035-.071 8.269 1.585.564-1.14-7.89-7.013-.555 1.123 6.487 5.586-.044.09-8.393-1.737-.618 1.247 6.47 5.622-.044.09-8.376-1.773-.555 1.123 10.36 2.022zm4.387-19.454c-2.685-1.779-5.403-1.313-6.842.859-1.438 2.172-.807 4.856 1.879 6.635s5.404 1.313 6.842-.86c1.439-2.171.807-4.855-1.879-6.634zm-.658.995c2.205 1.46 2.597 3.461 1.576 5.003-1.022 1.542-3.017 1.962-5.222.501-2.205-1.46-2.597-3.461-1.576-5.003 1.021-1.542 3.017-1.962 5.222-.501zm5.355.25l.782-.953-3.074-2.523 1.413-1.721c.056-.07.11-.135.16-.204l4.44.867.909-1.107-4.712-.89c.481-1.283.048-2.423-.998-3.281-1.39-1.142-3.094-1.151-4.608.694l-2.183 2.66 7.87 6.458zM25.91 48.73l-3.09-2.536 1.375-1.676c1.047-1.276 2.073-1.257 3.019-.48.945.775 1.118 1.74.084 3L25.91 48.73zm8.267-2.8l.878-.865-2.317-2.351-.099-1.913 5.844.886 1.062-1.047-6.968-.979-.179-6.273-1.147 1.131.288 6.808-.085.084-3.546-3.598-.878.866 7.147 7.252zm4.99-15.475l.931-.747c-1.004-1.164-2.828-1.172-4.363.06-1.52 1.22-2.005 3.062-.935 4.396.86 1.07 2.145 1.084 3.672.444l1.201-.505c1.024-.44 2.005-.742 2.64.05.697.868.32 2.114-.78 2.997-.947.76-2.12 1.013-2.92.176l-.993.796c1.139 1.228 2.903 1.266 4.61-.103 1.83-1.469 2.06-3.311 1.026-4.598-1.195-1.49-2.992-.837-3.988-.395l-.98.43c-.715.318-1.91.767-2.594-.086-.61-.76-.36-1.878.694-2.724.962-.772 2.058-.9 2.78-.191zm11.459-5.169l-3.818 2.293.563.938 3.819-2.294-.564-.937zm8.406-.09l1.199-.43-.62-8.396.074-.027 4.852 6.881 1.198-.429-.813-10.524-1.179.422.793 8.525-.094.033-4.836-7.076-1.311.47.756 8.537-.094.034-4.8-7.09-1.179.423 6.054 8.647zm10.234-4.266l.35-3.04 4.011-.926 1.646 2.58 1.26-.29-5.931-9.082-1.24.286-1.356 10.761 1.26-.29zm.482-4.194l.557-4.842.077-.018 2.622 4.11-3.256.75zm6.24-7.212l3.177-.394 1.118 9.02 1.224-.152-1.118-9.02 3.177-.393-.134-1.086-7.579.94.135 1.085zm18.269.243c-.393-2.085-2.073-3.305-4.122-3.289-2.605.02-4.478 2.043-4.453 5.265.025 3.221 1.93 5.215 4.534 5.195 2.048-.016 3.71-1.262 4.071-3.352l-1.233.009c-.287 1.414-1.495 2.18-2.847 2.19-1.85.014-3.312-1.407-3.332-4.051-.02-2.645 1.42-4.088 3.27-4.103 1.352-.01 2.57.736 2.88 2.146l1.232-.01zm1.197 6.266l1.224.147.543-4.522 5.39.647-.543 4.522 1.224.147 1.214-10.11-1.224-.146-.541 4.502-5.39-.648.54-4.501-1.224-.147-1.213 10.109zm13.816.937l1.179.358 1.324-4.357 5.195 1.578-1.324 4.357 1.18.359 2.959-9.743-1.179-.358-1.318 4.338-5.195-1.578 1.318-4.338-1.18-.358-2.959 9.742zm20.036 1.174c1.321-2.938.422-5.545-1.954-6.613-2.376-1.068-4.923-.011-6.244 2.927-1.321 2.938-.421 5.545 1.955 6.613 2.376 1.069 4.922.011 6.243-2.927zm-1.088-.49c-1.084 2.413-2.996 3.124-4.682 2.365-1.687-.758-2.424-2.66-1.34-5.072 1.085-2.412 2.996-3.122 4.683-2.364 1.687.758 2.424 2.66 1.339 5.072zm2.287 5.802l1.071.687 6.272-5.617.067.043-2.489 8.043 1.071.687 7.841-7.067-1.055-.676-6.268 5.831-.084-.054 2.653-8.15-1.172-.752-6.301 5.81-.084-.054 2.686-8.129-1.054-.676-3.154 10.074zm20.139 1.061l-.964-.768-6.344 7.964.964.768 6.344-7.964zm1.404 1.868l2.289 2.24-6.356 6.495.881.863 6.356-6.496 2.289 2.239.764-.782-5.458-5.34-.765.781zm4.667 16.491l.715 1.054 7.976-2.695.044.066-5.453 6.414.714 1.053 9.99-3.411-.704-1.037-8.057 2.894-.056-.082 5.646-6.449-.781-1.152-8.08 2.86-.055-.081 5.668-6.416-.703-1.037-6.864 8.02zm14.542 12.98c2.865-1.472 3.789-4.07 2.598-6.387-1.19-2.317-3.84-3.08-6.705-1.608-2.866 1.472-3.79 4.07-2.599 6.387 1.19 2.318 3.84 3.08 6.706 1.608zm-.546-1.061c-2.352 1.209-4.289.571-5.134-1.074-.845-1.645-.235-3.59 2.118-4.799 2.352-1.208 4.289-.571 5.134 1.074.845 1.645.235 3.59-2.118 4.799zm-2.557 5.105l.441 1.151 3.714-1.425.798 2.08c.032.083.062.162.097.24l-2.948 3.431.513 1.337 3.102-3.656c.878 1.053 2.084 1.24 3.346.755 1.68-.645 2.53-2.121 1.675-4.35l-1.233-3.211-9.505 3.648zm5.194-.673l3.732-1.432.777 2.024c.591 1.54.067 2.423-1.075 2.861-1.141.439-2.066.112-2.65-1.41l-.784-2.043zm-1.861 7.993l.323 1.19 3.186-.864 1.715.854-3.642 4.654.39 1.44 4.275-5.588 5.552 2.925-.421-1.555-6.072-3.093-.031-.116 4.875-1.32-.322-1.19-9.828 2.662zm11.129 12.457l.188 1.178c1.508-.295 2.42-1.875 2.11-3.82-.306-1.924-1.666-3.258-3.355-2.99-1.355.217-2.004 1.327-2.206 2.97l-.156 1.293c-.126 1.108-.349 2.11-1.351 2.27-1.1.174-1.995-.77-2.217-2.165-.191-1.198.171-2.343 1.294-2.622l-.2-1.257c-1.631.38-2.538 1.894-2.194 4.054.369 2.318 1.855 3.43 3.485 3.17 1.885-.3 2.21-2.183 2.319-3.268l.112-1.065c.078-.778.28-2.038 1.36-2.21.962-.153 1.81.618 2.023 1.953.194 1.218-.239 2.233-1.212 2.509zM181.41 92.19l-.103-4.454-1.094.025.103 4.454 1.094-.026z" fill="#0D224E"/><path d="M122 97l-37.5 21.651V75.349L122 97z" fill="#4A86FF"/></svg>